<mxfile host="app.diagrams.net" agent="Mozilla/5.0 (Windows NT 10.0; Win64; x64) AppleWebKit/537.36 (KHTML, like Gecko) Chrome/136.0.0.0 Safari/537.36" version="26.0.16">
  <diagram id="C5RBs43oDa-KdzZeNtuy" name="Page-1">
    <mxGraphModel dx="880" dy="468" grid="1" gridSize="10" guides="1" tooltips="1" connect="1" arrows="1" fold="1" page="1" pageScale="1" pageWidth="827" pageHeight="1169" math="0" shadow="0">
      <root>
        <mxCell id="WIyWlLk6GJQsqaUBKTNV-0" />
        <mxCell id="WIyWlLk6GJQsqaUBKTNV-1" parent="WIyWlLk6GJQsqaUBKTNV-0" />
        <mxCell id="zkfFHV4jXpPFQw0GAbJ--0" value="&lt;&lt;Alimento&gt;&gt; &#xa;abstracs" style="swimlane;fontStyle=3;align=center;verticalAlign=top;childLayout=stackLayout;horizontal=1;startSize=40;horizontalStack=0;resizeParent=1;resizeLast=0;collapsible=1;marginBottom=0;rounded=0;shadow=0;strokeWidth=1;" parent="WIyWlLk6GJQsqaUBKTNV-1" vertex="1">
          <mxGeometry x="319" y="100" width="190" height="130" as="geometry">
            <mxRectangle x="230" y="140" width="160" height="26" as="alternateBounds" />
          </mxGeometry>
        </mxCell>
        <mxCell id="zkfFHV4jXpPFQw0GAbJ--1" value="+ nombre: String" style="text;align=left;verticalAlign=top;spacingLeft=4;spacingRight=4;overflow=hidden;rotatable=0;points=[[0,0.5],[1,0.5]];portConstraint=eastwest;" parent="zkfFHV4jXpPFQw0GAbJ--0" vertex="1">
          <mxGeometry y="40" width="190" height="26" as="geometry" />
        </mxCell>
        <mxCell id="zkfFHV4jXpPFQw0GAbJ--2" value="+ categoria: String" style="text;align=left;verticalAlign=top;spacingLeft=4;spacingRight=4;overflow=hidden;rotatable=0;points=[[0,0.5],[1,0.5]];portConstraint=eastwest;rounded=0;shadow=0;html=0;" parent="zkfFHV4jXpPFQw0GAbJ--0" vertex="1">
          <mxGeometry y="66" width="190" height="26" as="geometry" />
        </mxCell>
        <mxCell id="zkfFHV4jXpPFQw0GAbJ--4" value="" style="line;html=1;strokeWidth=1;align=left;verticalAlign=middle;spacingTop=-1;spacingLeft=3;spacingRight=3;rotatable=0;labelPosition=right;points=[];portConstraint=eastwest;" parent="zkfFHV4jXpPFQw0GAbJ--0" vertex="1">
          <mxGeometry y="92" width="190" height="8" as="geometry" />
        </mxCell>
        <mxCell id="zkfFHV4jXpPFQw0GAbJ--5" value="+ mostrarInfo(): void" style="text;align=left;verticalAlign=top;spacingLeft=4;spacingRight=4;overflow=hidden;rotatable=0;points=[[0,0.5],[1,0.5]];portConstraint=eastwest;" parent="zkfFHV4jXpPFQw0GAbJ--0" vertex="1">
          <mxGeometry y="100" width="190" height="26" as="geometry" />
        </mxCell>
        <mxCell id="n-YhhdDsolb5k3IF7QTY-5" value="&lt;b&gt;HidratoCarbono&lt;/b&gt;" style="swimlane;fontStyle=0;childLayout=stackLayout;horizontal=1;startSize=26;fillColor=none;horizontalStack=0;resizeParent=1;resizeParentMax=0;resizeLast=0;collapsible=1;marginBottom=0;whiteSpace=wrap;html=1;" vertex="1" parent="WIyWlLk6GJQsqaUBKTNV-1">
          <mxGeometry x="590" y="370" width="200" height="52" as="geometry" />
        </mxCell>
        <mxCell id="n-YhhdDsolb5k3IF7QTY-6" value="+ mostrarInfo(): void" style="text;strokeColor=none;fillColor=none;align=left;verticalAlign=top;spacingLeft=4;spacingRight=4;overflow=hidden;rotatable=0;points=[[0,0.5],[1,0.5]];portConstraint=eastwest;whiteSpace=wrap;html=1;" vertex="1" parent="n-YhhdDsolb5k3IF7QTY-5">
          <mxGeometry y="26" width="200" height="26" as="geometry" />
        </mxCell>
        <mxCell id="n-YhhdDsolb5k3IF7QTY-9" value="&lt;b&gt;Grasa&lt;/b&gt;" style="swimlane;fontStyle=0;childLayout=stackLayout;horizontal=1;startSize=26;fillColor=none;horizontalStack=0;resizeParent=1;resizeParentMax=0;resizeLast=0;collapsible=1;marginBottom=0;whiteSpace=wrap;html=1;" vertex="1" parent="WIyWlLk6GJQsqaUBKTNV-1">
          <mxGeometry x="290" y="370" width="270" height="52" as="geometry" />
        </mxCell>
        <mxCell id="n-YhhdDsolb5k3IF7QTY-10" value="+ mostrarInfo(): void" style="text;strokeColor=none;fillColor=none;align=left;verticalAlign=top;spacingLeft=4;spacingRight=4;overflow=hidden;rotatable=0;points=[[0,0.5],[1,0.5]];portConstraint=eastwest;whiteSpace=wrap;html=1;" vertex="1" parent="n-YhhdDsolb5k3IF7QTY-9">
          <mxGeometry y="26" width="270" height="26" as="geometry" />
        </mxCell>
        <mxCell id="n-YhhdDsolb5k3IF7QTY-13" value="&lt;b&gt;FrutaVerdura&lt;/b&gt;" style="swimlane;fontStyle=0;childLayout=stackLayout;horizontal=1;startSize=26;fillColor=none;horizontalStack=0;resizeParent=1;resizeParentMax=0;resizeLast=0;collapsible=1;marginBottom=0;whiteSpace=wrap;html=1;" vertex="1" parent="WIyWlLk6GJQsqaUBKTNV-1">
          <mxGeometry x="40" y="360" width="210" height="50" as="geometry" />
        </mxCell>
        <mxCell id="n-YhhdDsolb5k3IF7QTY-14" value="+ mostrarInfo(): void" style="text;strokeColor=none;fillColor=none;align=left;verticalAlign=top;spacingLeft=4;spacingRight=4;overflow=hidden;rotatable=0;points=[[0,0.5],[1,0.5]];portConstraint=eastwest;whiteSpace=wrap;html=1;" vertex="1" parent="n-YhhdDsolb5k3IF7QTY-13">
          <mxGeometry y="26" width="210" height="24" as="geometry" />
        </mxCell>
        <mxCell id="n-YhhdDsolb5k3IF7QTY-17" value="Manzana" style="html=1;whiteSpace=wrap;" vertex="1" parent="WIyWlLk6GJQsqaUBKTNV-1">
          <mxGeometry x="20" y="432" width="60" height="28" as="geometry" />
        </mxCell>
        <mxCell id="n-YhhdDsolb5k3IF7QTY-19" value="Aguacate" style="html=1;whiteSpace=wrap;" vertex="1" parent="WIyWlLk6GJQsqaUBKTNV-1">
          <mxGeometry x="90" y="432" width="60" height="28" as="geometry" />
        </mxCell>
        <mxCell id="n-YhhdDsolb5k3IF7QTY-20" value="Uva" style="html=1;whiteSpace=wrap;" vertex="1" parent="WIyWlLk6GJQsqaUBKTNV-1">
          <mxGeometry x="160" y="432" width="30" height="28" as="geometry" />
        </mxCell>
        <mxCell id="n-YhhdDsolb5k3IF7QTY-21" value="Tomate" style="html=1;whiteSpace=wrap;" vertex="1" parent="WIyWlLk6GJQsqaUBKTNV-1">
          <mxGeometry x="200" y="432" width="50" height="28" as="geometry" />
        </mxCell>
        <mxCell id="n-YhhdDsolb5k3IF7QTY-23" value="Pescado" style="html=1;whiteSpace=wrap;" vertex="1" parent="WIyWlLk6GJQsqaUBKTNV-1">
          <mxGeometry x="510" y="440" width="50" height="28" as="geometry" />
        </mxCell>
        <mxCell id="n-YhhdDsolb5k3IF7QTY-24" value="Chocolate" style="html=1;whiteSpace=wrap;" vertex="1" parent="WIyWlLk6GJQsqaUBKTNV-1">
          <mxGeometry x="440" y="440" width="60" height="28" as="geometry" />
        </mxCell>
        <mxCell id="n-YhhdDsolb5k3IF7QTY-25" value="Queso" style="html=1;whiteSpace=wrap;" vertex="1" parent="WIyWlLk6GJQsqaUBKTNV-1">
          <mxGeometry x="380" y="440" width="50" height="28" as="geometry" />
        </mxCell>
        <mxCell id="n-YhhdDsolb5k3IF7QTY-26" value="Aceite" style="html=1;whiteSpace=wrap;" vertex="1" parent="WIyWlLk6GJQsqaUBKTNV-1">
          <mxGeometry x="320" y="440" width="50" height="28" as="geometry" />
        </mxCell>
        <mxCell id="n-YhhdDsolb5k3IF7QTY-28" value="Pan" style="html=1;whiteSpace=wrap;" vertex="1" parent="WIyWlLk6GJQsqaUBKTNV-1">
          <mxGeometry x="740" y="450" width="50" height="28" as="geometry" />
        </mxCell>
        <mxCell id="n-YhhdDsolb5k3IF7QTY-29" value="Pasta" style="html=1;whiteSpace=wrap;" vertex="1" parent="WIyWlLk6GJQsqaUBKTNV-1">
          <mxGeometry x="670" y="450" width="50" height="28" as="geometry" />
        </mxCell>
        <mxCell id="n-YhhdDsolb5k3IF7QTY-30" value="Papa" style="html=1;whiteSpace=wrap;" vertex="1" parent="WIyWlLk6GJQsqaUBKTNV-1">
          <mxGeometry x="600" y="450" width="50" height="28" as="geometry" />
        </mxCell>
        <mxCell id="n-YhhdDsolb5k3IF7QTY-38" value="" style="endArrow=none;html=1;rounded=0;" edge="1" parent="WIyWlLk6GJQsqaUBKTNV-1">
          <mxGeometry width="50" height="50" relative="1" as="geometry">
            <mxPoint x="60" y="432" as="sourcePoint" />
            <mxPoint x="60" y="412" as="targetPoint" />
          </mxGeometry>
        </mxCell>
        <mxCell id="n-YhhdDsolb5k3IF7QTY-47" value="" style="endArrow=none;html=1;rounded=0;" edge="1" parent="WIyWlLk6GJQsqaUBKTNV-1">
          <mxGeometry width="50" height="50" relative="1" as="geometry">
            <mxPoint x="119.5" y="432" as="sourcePoint" />
            <mxPoint x="119.5" y="412" as="targetPoint" />
          </mxGeometry>
        </mxCell>
        <mxCell id="n-YhhdDsolb5k3IF7QTY-48" value="" style="endArrow=none;html=1;rounded=0;" edge="1" parent="WIyWlLk6GJQsqaUBKTNV-1">
          <mxGeometry width="50" height="50" relative="1" as="geometry">
            <mxPoint x="174.5" y="430" as="sourcePoint" />
            <mxPoint x="174.5" y="410" as="targetPoint" />
          </mxGeometry>
        </mxCell>
        <mxCell id="n-YhhdDsolb5k3IF7QTY-49" value="" style="endArrow=none;html=1;rounded=0;" edge="1" parent="WIyWlLk6GJQsqaUBKTNV-1">
          <mxGeometry width="50" height="50" relative="1" as="geometry">
            <mxPoint x="220" y="430" as="sourcePoint" />
            <mxPoint x="220" y="410" as="targetPoint" />
          </mxGeometry>
        </mxCell>
        <mxCell id="n-YhhdDsolb5k3IF7QTY-50" value="" style="endArrow=none;html=1;rounded=0;" edge="1" parent="WIyWlLk6GJQsqaUBKTNV-1">
          <mxGeometry width="50" height="50" relative="1" as="geometry">
            <mxPoint x="540" y="442" as="sourcePoint" />
            <mxPoint x="540" y="422" as="targetPoint" />
          </mxGeometry>
        </mxCell>
        <mxCell id="n-YhhdDsolb5k3IF7QTY-51" value="" style="endArrow=none;html=1;rounded=0;" edge="1" parent="WIyWlLk6GJQsqaUBKTNV-1">
          <mxGeometry width="50" height="50" relative="1" as="geometry">
            <mxPoint x="469.5" y="440" as="sourcePoint" />
            <mxPoint x="469.5" y="420" as="targetPoint" />
            <Array as="points">
              <mxPoint x="469.5" y="430" />
            </Array>
          </mxGeometry>
        </mxCell>
        <mxCell id="n-YhhdDsolb5k3IF7QTY-52" value="" style="endArrow=none;html=1;rounded=0;" edge="1" parent="WIyWlLk6GJQsqaUBKTNV-1">
          <mxGeometry width="50" height="50" relative="1" as="geometry">
            <mxPoint x="404.5" y="442" as="sourcePoint" />
            <mxPoint x="404.5" y="422" as="targetPoint" />
          </mxGeometry>
        </mxCell>
        <mxCell id="n-YhhdDsolb5k3IF7QTY-53" value="" style="endArrow=none;html=1;rounded=0;" edge="1" parent="WIyWlLk6GJQsqaUBKTNV-1">
          <mxGeometry width="50" height="50" relative="1" as="geometry">
            <mxPoint x="344.5" y="440" as="sourcePoint" />
            <mxPoint x="344.5" y="420" as="targetPoint" />
          </mxGeometry>
        </mxCell>
        <mxCell id="n-YhhdDsolb5k3IF7QTY-55" value="" style="endArrow=none;html=1;rounded=0;exitX=0.6;exitY=0;exitDx=0;exitDy=0;exitPerimeter=0;" edge="1" parent="WIyWlLk6GJQsqaUBKTNV-1" source="n-YhhdDsolb5k3IF7QTY-30">
          <mxGeometry width="50" height="50" relative="1" as="geometry">
            <mxPoint x="630" y="442" as="sourcePoint" />
            <mxPoint x="630" y="422" as="targetPoint" />
          </mxGeometry>
        </mxCell>
        <mxCell id="n-YhhdDsolb5k3IF7QTY-56" value="" style="endArrow=none;html=1;rounded=0;exitX=0.5;exitY=0;exitDx=0;exitDy=0;" edge="1" parent="WIyWlLk6GJQsqaUBKTNV-1" source="n-YhhdDsolb5k3IF7QTY-29">
          <mxGeometry width="50" height="50" relative="1" as="geometry">
            <mxPoint x="694.5" y="442" as="sourcePoint" />
            <mxPoint x="694.5" y="422" as="targetPoint" />
          </mxGeometry>
        </mxCell>
        <mxCell id="n-YhhdDsolb5k3IF7QTY-57" value="" style="endArrow=none;html=1;rounded=0;exitX=0.5;exitY=0;exitDx=0;exitDy=0;" edge="1" parent="WIyWlLk6GJQsqaUBKTNV-1" source="n-YhhdDsolb5k3IF7QTY-28">
          <mxGeometry width="50" height="50" relative="1" as="geometry">
            <mxPoint x="764.5" y="440" as="sourcePoint" />
            <mxPoint x="764.5" y="420" as="targetPoint" />
          </mxGeometry>
        </mxCell>
        <mxCell id="n-YhhdDsolb5k3IF7QTY-61" value="" style="endArrow=none;html=1;rounded=0;" edge="1" parent="WIyWlLk6GJQsqaUBKTNV-1">
          <mxGeometry width="50" height="50" relative="1" as="geometry">
            <mxPoint x="120" y="280" as="sourcePoint" />
            <mxPoint x="720" y="280" as="targetPoint" />
            <Array as="points" />
          </mxGeometry>
        </mxCell>
        <mxCell id="n-YhhdDsolb5k3IF7QTY-62" value="" style="endArrow=none;html=1;rounded=0;exitX=0.386;exitY=0.04;exitDx=0;exitDy=0;exitPerimeter=0;" edge="1" parent="WIyWlLk6GJQsqaUBKTNV-1" source="n-YhhdDsolb5k3IF7QTY-13">
          <mxGeometry width="50" height="50" relative="1" as="geometry">
            <mxPoint x="119.5" y="350" as="sourcePoint" />
            <mxPoint x="120" y="280" as="targetPoint" />
          </mxGeometry>
        </mxCell>
        <mxCell id="n-YhhdDsolb5k3IF7QTY-63" value="" style="endArrow=none;html=1;rounded=0;exitX=0.645;exitY=-0.019;exitDx=0;exitDy=0;exitPerimeter=0;" edge="1" parent="WIyWlLk6GJQsqaUBKTNV-1" source="n-YhhdDsolb5k3IF7QTY-5">
          <mxGeometry width="50" height="50" relative="1" as="geometry">
            <mxPoint x="721" y="362" as="sourcePoint" />
            <mxPoint x="720" y="280" as="targetPoint" />
          </mxGeometry>
        </mxCell>
        <mxCell id="n-YhhdDsolb5k3IF7QTY-64" value="" style="endArrow=none;html=1;rounded=0;exitX=0.645;exitY=-0.019;exitDx=0;exitDy=0;exitPerimeter=0;" edge="1" parent="WIyWlLk6GJQsqaUBKTNV-1">
          <mxGeometry width="50" height="50" relative="1" as="geometry">
            <mxPoint x="414" y="370" as="sourcePoint" />
            <mxPoint x="415" y="281" as="targetPoint" />
          </mxGeometry>
        </mxCell>
        <mxCell id="n-YhhdDsolb5k3IF7QTY-66" value="" style="endArrow=open;endFill=1;endSize=12;html=1;rounded=0;" edge="1" parent="WIyWlLk6GJQsqaUBKTNV-1">
          <mxGeometry width="160" relative="1" as="geometry">
            <mxPoint x="414" y="280" as="sourcePoint" />
            <mxPoint x="414" y="230" as="targetPoint" />
          </mxGeometry>
        </mxCell>
      </root>
    </mxGraphModel>
  </diagram>
</mxfile>
